<mxfile host="app.diagrams.net" modified="2023-10-04T10:53:08.542Z" agent="Mozilla/5.0 (X11; Ubuntu; Linux x86_64; rv:109.0) Gecko/20100101 Firefox/118.0" etag="uj8DPD9n5q4Gz25qS1T0" version="22.0.0" type="github">
  <diagram id="C5RBs43oDa-KdzZeNtuy" name="Page-1">
    <mxGraphModel dx="1035" dy="534" grid="1" gridSize="10" guides="1" tooltips="1" connect="1" arrows="1" fold="1" page="1" pageScale="1" pageWidth="827" pageHeight="1169" math="0" shadow="0">
      <root>
        <mxCell id="WIyWlLk6GJQsqaUBKTNV-0" />
        <mxCell id="WIyWlLk6GJQsqaUBKTNV-1" parent="WIyWlLk6GJQsqaUBKTNV-0" />
        <mxCell id="qvhPEpaHhkURTSQy2wZx-4" value="" style="edgeStyle=orthogonalEdgeStyle;rounded=0;orthogonalLoop=1;jettySize=auto;html=1;" edge="1" parent="WIyWlLk6GJQsqaUBKTNV-1" source="qvhPEpaHhkURTSQy2wZx-2" target="qvhPEpaHhkURTSQy2wZx-3">
          <mxGeometry relative="1" as="geometry" />
        </mxCell>
        <mxCell id="qvhPEpaHhkURTSQy2wZx-2" value="Mulai" style="strokeWidth=2;html=1;shape=mxgraph.flowchart.start_1;whiteSpace=wrap;" vertex="1" parent="WIyWlLk6GJQsqaUBKTNV-1">
          <mxGeometry x="190" y="80" width="100" height="60" as="geometry" />
        </mxCell>
        <mxCell id="qvhPEpaHhkURTSQy2wZx-6" value="" style="edgeStyle=orthogonalEdgeStyle;rounded=0;orthogonalLoop=1;jettySize=auto;html=1;" edge="1" parent="WIyWlLk6GJQsqaUBKTNV-1" source="qvhPEpaHhkURTSQy2wZx-3" target="qvhPEpaHhkURTSQy2wZx-5">
          <mxGeometry relative="1" as="geometry" />
        </mxCell>
        <mxCell id="qvhPEpaHhkURTSQy2wZx-3" value="&lt;div&gt;Sambutan dan&lt;/div&gt;&lt;div&gt;Input nilai&lt;/div&gt;" style="shape=parallelogram;perimeter=parallelogramPerimeter;whiteSpace=wrap;html=1;fixedSize=1;strokeWidth=2;" vertex="1" parent="WIyWlLk6GJQsqaUBKTNV-1">
          <mxGeometry x="180" y="170" width="120" height="60" as="geometry" />
        </mxCell>
        <mxCell id="qvhPEpaHhkURTSQy2wZx-5" value="Nilai&lt;br&gt;(100 - 86)&lt;br&gt;?" style="rhombus;whiteSpace=wrap;html=1;strokeWidth=2;" vertex="1" parent="WIyWlLk6GJQsqaUBKTNV-1">
          <mxGeometry x="200" y="260" width="80" height="80" as="geometry" />
        </mxCell>
        <mxCell id="qvhPEpaHhkURTSQy2wZx-7" value="" style="endArrow=classic;html=1;rounded=0;exitX=0;exitY=0.5;exitDx=0;exitDy=0;" edge="1" parent="WIyWlLk6GJQsqaUBKTNV-1" source="qvhPEpaHhkURTSQy2wZx-5" target="qvhPEpaHhkURTSQy2wZx-21">
          <mxGeometry width="50" height="50" relative="1" as="geometry">
            <mxPoint x="230" y="360" as="sourcePoint" />
            <mxPoint x="160" y="360" as="targetPoint" />
            <Array as="points">
              <mxPoint x="160" y="300" />
            </Array>
          </mxGeometry>
        </mxCell>
        <mxCell id="qvhPEpaHhkURTSQy2wZx-39" value="Ya" style="edgeLabel;html=1;align=center;verticalAlign=middle;resizable=0;points=[];" vertex="1" connectable="0" parent="qvhPEpaHhkURTSQy2wZx-7">
          <mxGeometry x="-0.6067" y="2" relative="1" as="geometry">
            <mxPoint y="-12" as="offset" />
          </mxGeometry>
        </mxCell>
        <mxCell id="qvhPEpaHhkURTSQy2wZx-8" value="" style="endArrow=classic;html=1;rounded=0;exitX=1;exitY=0.5;exitDx=0;exitDy=0;entryX=0.5;entryY=0;entryDx=0;entryDy=0;" edge="1" parent="WIyWlLk6GJQsqaUBKTNV-1" source="qvhPEpaHhkURTSQy2wZx-5" target="qvhPEpaHhkURTSQy2wZx-9">
          <mxGeometry width="50" height="50" relative="1" as="geometry">
            <mxPoint x="230" y="360" as="sourcePoint" />
            <mxPoint x="320" y="350" as="targetPoint" />
            <Array as="points">
              <mxPoint x="320" y="300" />
            </Array>
          </mxGeometry>
        </mxCell>
        <mxCell id="qvhPEpaHhkURTSQy2wZx-40" value="Tidak" style="edgeLabel;html=1;align=center;verticalAlign=middle;resizable=0;points=[];" vertex="1" connectable="0" parent="qvhPEpaHhkURTSQy2wZx-8">
          <mxGeometry x="-0.6159" y="-1" relative="1" as="geometry">
            <mxPoint x="1" y="-11" as="offset" />
          </mxGeometry>
        </mxCell>
        <mxCell id="qvhPEpaHhkURTSQy2wZx-9" value="Nilai&lt;br&gt;(85 - 66)&lt;br&gt;?" style="rhombus;whiteSpace=wrap;html=1;strokeWidth=2;" vertex="1" parent="WIyWlLk6GJQsqaUBKTNV-1">
          <mxGeometry x="280" y="360" width="80" height="80" as="geometry" />
        </mxCell>
        <mxCell id="qvhPEpaHhkURTSQy2wZx-10" value="Nilai&lt;br&gt;(65 - 46)&lt;br&gt;?" style="rhombus;whiteSpace=wrap;html=1;strokeWidth=2;" vertex="1" parent="WIyWlLk6GJQsqaUBKTNV-1">
          <mxGeometry x="360" y="460" width="80" height="80" as="geometry" />
        </mxCell>
        <mxCell id="qvhPEpaHhkURTSQy2wZx-12" value="" style="endArrow=classic;html=1;rounded=0;exitX=1;exitY=0.5;exitDx=0;exitDy=0;entryX=0.5;entryY=0;entryDx=0;entryDy=0;" edge="1" parent="WIyWlLk6GJQsqaUBKTNV-1" source="qvhPEpaHhkURTSQy2wZx-10" target="qvhPEpaHhkURTSQy2wZx-13">
          <mxGeometry width="50" height="50" relative="1" as="geometry">
            <mxPoint x="390" y="560" as="sourcePoint" />
            <mxPoint x="480" y="550" as="targetPoint" />
            <Array as="points">
              <mxPoint x="480" y="500" />
            </Array>
          </mxGeometry>
        </mxCell>
        <mxCell id="qvhPEpaHhkURTSQy2wZx-45" value="Tidak" style="edgeLabel;html=1;align=center;verticalAlign=middle;resizable=0;points=[];" vertex="1" connectable="0" parent="qvhPEpaHhkURTSQy2wZx-12">
          <mxGeometry x="-0.6434" y="-1" relative="1" as="geometry">
            <mxPoint y="-11" as="offset" />
          </mxGeometry>
        </mxCell>
        <mxCell id="qvhPEpaHhkURTSQy2wZx-13" value="Nilai&lt;br&gt;(45 - 1)&lt;br&gt;?" style="rhombus;whiteSpace=wrap;html=1;strokeWidth=2;" vertex="1" parent="WIyWlLk6GJQsqaUBKTNV-1">
          <mxGeometry x="440" y="560" width="80" height="80" as="geometry" />
        </mxCell>
        <mxCell id="qvhPEpaHhkURTSQy2wZx-14" value="" style="endArrow=classic;html=1;rounded=0;exitX=1;exitY=0.5;exitDx=0;exitDy=0;entryX=0.5;entryY=0;entryDx=0;entryDy=0;" edge="1" parent="WIyWlLk6GJQsqaUBKTNV-1">
          <mxGeometry width="50" height="50" relative="1" as="geometry">
            <mxPoint x="360" y="400" as="sourcePoint" />
            <mxPoint x="400" y="460" as="targetPoint" />
            <Array as="points">
              <mxPoint x="400" y="400" />
            </Array>
          </mxGeometry>
        </mxCell>
        <mxCell id="qvhPEpaHhkURTSQy2wZx-43" value="Tidak" style="edgeLabel;html=1;align=center;verticalAlign=middle;resizable=0;points=[];" vertex="1" connectable="0" parent="qvhPEpaHhkURTSQy2wZx-14">
          <mxGeometry x="-0.5883" y="-1" relative="1" as="geometry">
            <mxPoint y="-11" as="offset" />
          </mxGeometry>
        </mxCell>
        <mxCell id="qvhPEpaHhkURTSQy2wZx-15" value="" style="endArrow=classic;html=1;rounded=0;exitX=1;exitY=0.5;exitDx=0;exitDy=0;entryX=0.5;entryY=0;entryDx=0;entryDy=0;" edge="1" parent="WIyWlLk6GJQsqaUBKTNV-1" target="qvhPEpaHhkURTSQy2wZx-16">
          <mxGeometry width="50" height="50" relative="1" as="geometry">
            <mxPoint x="520" y="600" as="sourcePoint" />
            <mxPoint x="560" y="650" as="targetPoint" />
            <Array as="points">
              <mxPoint x="560" y="600" />
            </Array>
          </mxGeometry>
        </mxCell>
        <mxCell id="qvhPEpaHhkURTSQy2wZx-46" value="Tidak" style="edgeLabel;html=1;align=center;verticalAlign=middle;resizable=0;points=[];" vertex="1" connectable="0" parent="qvhPEpaHhkURTSQy2wZx-15">
          <mxGeometry x="-0.6572" relative="1" as="geometry">
            <mxPoint y="-10" as="offset" />
          </mxGeometry>
        </mxCell>
        <mxCell id="qvhPEpaHhkURTSQy2wZx-16" value="Nilai&lt;br&gt;(0)&lt;br&gt;?" style="rhombus;whiteSpace=wrap;html=1;strokeWidth=2;" vertex="1" parent="WIyWlLk6GJQsqaUBKTNV-1">
          <mxGeometry x="520" y="660" width="80" height="80" as="geometry" />
        </mxCell>
        <mxCell id="qvhPEpaHhkURTSQy2wZx-20" value="" style="endArrow=classic;html=1;rounded=0;exitX=1;exitY=0.5;exitDx=0;exitDy=0;entryX=0.5;entryY=0;entryDx=0;entryDy=0;" edge="1" parent="WIyWlLk6GJQsqaUBKTNV-1" target="qvhPEpaHhkURTSQy2wZx-29">
          <mxGeometry width="50" height="50" relative="1" as="geometry">
            <mxPoint x="600" y="700" as="sourcePoint" />
            <mxPoint x="650" y="750" as="targetPoint" />
            <Array as="points">
              <mxPoint x="640" y="700" />
            </Array>
          </mxGeometry>
        </mxCell>
        <mxCell id="qvhPEpaHhkURTSQy2wZx-49" value="Tidak" style="edgeLabel;html=1;align=center;verticalAlign=middle;resizable=0;points=[];" vertex="1" connectable="0" parent="qvhPEpaHhkURTSQy2wZx-20">
          <mxGeometry x="-0.6297" relative="1" as="geometry">
            <mxPoint y="-10" as="offset" />
          </mxGeometry>
        </mxCell>
        <mxCell id="qvhPEpaHhkURTSQy2wZx-21" value="Nilai = A" style="shape=parallelogram;perimeter=parallelogramPerimeter;whiteSpace=wrap;html=1;fixedSize=1;" vertex="1" parent="WIyWlLk6GJQsqaUBKTNV-1">
          <mxGeometry x="110" y="360" width="100" height="80" as="geometry" />
        </mxCell>
        <mxCell id="qvhPEpaHhkURTSQy2wZx-22" value="" style="endArrow=classic;html=1;rounded=0;exitX=0;exitY=0.5;exitDx=0;exitDy=0;" edge="1" parent="WIyWlLk6GJQsqaUBKTNV-1" target="qvhPEpaHhkURTSQy2wZx-23">
          <mxGeometry width="50" height="50" relative="1" as="geometry">
            <mxPoint x="280" y="400" as="sourcePoint" />
            <mxPoint x="240" y="460" as="targetPoint" />
            <Array as="points">
              <mxPoint x="240" y="400" />
            </Array>
          </mxGeometry>
        </mxCell>
        <mxCell id="qvhPEpaHhkURTSQy2wZx-42" value="Ya" style="edgeLabel;html=1;align=center;verticalAlign=middle;resizable=0;points=[];" vertex="1" connectable="0" parent="qvhPEpaHhkURTSQy2wZx-22">
          <mxGeometry x="-0.6393" y="-1" relative="1" as="geometry">
            <mxPoint y="-9" as="offset" />
          </mxGeometry>
        </mxCell>
        <mxCell id="qvhPEpaHhkURTSQy2wZx-23" value="Nilai = B" style="shape=parallelogram;perimeter=parallelogramPerimeter;whiteSpace=wrap;html=1;fixedSize=1;" vertex="1" parent="WIyWlLk6GJQsqaUBKTNV-1">
          <mxGeometry x="190" y="460" width="100" height="80" as="geometry" />
        </mxCell>
        <mxCell id="qvhPEpaHhkURTSQy2wZx-24" value="" style="endArrow=classic;html=1;rounded=0;exitX=0;exitY=0.5;exitDx=0;exitDy=0;" edge="1" parent="WIyWlLk6GJQsqaUBKTNV-1" target="qvhPEpaHhkURTSQy2wZx-25">
          <mxGeometry width="50" height="50" relative="1" as="geometry">
            <mxPoint x="360" y="500" as="sourcePoint" />
            <mxPoint x="320" y="560" as="targetPoint" />
            <Array as="points">
              <mxPoint x="320" y="500" />
            </Array>
          </mxGeometry>
        </mxCell>
        <mxCell id="qvhPEpaHhkURTSQy2wZx-44" value="Ya" style="edgeLabel;html=1;align=center;verticalAlign=middle;resizable=0;points=[];" vertex="1" connectable="0" parent="qvhPEpaHhkURTSQy2wZx-24">
          <mxGeometry x="-0.6117" relative="1" as="geometry">
            <mxPoint y="-10" as="offset" />
          </mxGeometry>
        </mxCell>
        <mxCell id="qvhPEpaHhkURTSQy2wZx-25" value="Nilai = C" style="shape=parallelogram;perimeter=parallelogramPerimeter;whiteSpace=wrap;html=1;fixedSize=1;" vertex="1" parent="WIyWlLk6GJQsqaUBKTNV-1">
          <mxGeometry x="270" y="560" width="100" height="80" as="geometry" />
        </mxCell>
        <mxCell id="qvhPEpaHhkURTSQy2wZx-26" value="" style="endArrow=classic;html=1;rounded=0;exitX=0;exitY=0.5;exitDx=0;exitDy=0;" edge="1" parent="WIyWlLk6GJQsqaUBKTNV-1" target="qvhPEpaHhkURTSQy2wZx-27">
          <mxGeometry width="50" height="50" relative="1" as="geometry">
            <mxPoint x="440" y="600" as="sourcePoint" />
            <mxPoint x="400" y="660" as="targetPoint" />
            <Array as="points">
              <mxPoint x="400" y="600" />
            </Array>
          </mxGeometry>
        </mxCell>
        <mxCell id="qvhPEpaHhkURTSQy2wZx-47" value="Ya" style="edgeLabel;html=1;align=center;verticalAlign=middle;resizable=0;points=[];" vertex="1" connectable="0" parent="qvhPEpaHhkURTSQy2wZx-26">
          <mxGeometry x="-0.6393" y="-2" relative="1" as="geometry">
            <mxPoint y="-8" as="offset" />
          </mxGeometry>
        </mxCell>
        <mxCell id="qvhPEpaHhkURTSQy2wZx-27" value="Nilai = D" style="shape=parallelogram;perimeter=parallelogramPerimeter;whiteSpace=wrap;html=1;fixedSize=1;" vertex="1" parent="WIyWlLk6GJQsqaUBKTNV-1">
          <mxGeometry x="350" y="660" width="100" height="80" as="geometry" />
        </mxCell>
        <mxCell id="qvhPEpaHhkURTSQy2wZx-28" value="" style="endArrow=classic;html=1;rounded=0;exitX=0;exitY=0.5;exitDx=0;exitDy=0;entryX=0.5;entryY=0;entryDx=0;entryDy=0;" edge="1" parent="WIyWlLk6GJQsqaUBKTNV-1" target="qvhPEpaHhkURTSQy2wZx-30">
          <mxGeometry width="50" height="50" relative="1" as="geometry">
            <mxPoint x="520" y="700" as="sourcePoint" />
            <mxPoint x="490" y="750" as="targetPoint" />
            <Array as="points">
              <mxPoint x="480" y="700" />
            </Array>
          </mxGeometry>
        </mxCell>
        <mxCell id="qvhPEpaHhkURTSQy2wZx-48" value="Ya" style="edgeLabel;html=1;align=center;verticalAlign=middle;resizable=0;points=[];" vertex="1" connectable="0" parent="qvhPEpaHhkURTSQy2wZx-28">
          <mxGeometry x="-0.6255" y="-2" relative="1" as="geometry">
            <mxPoint x="-1" y="-8" as="offset" />
          </mxGeometry>
        </mxCell>
        <mxCell id="qvhPEpaHhkURTSQy2wZx-29" value="&lt;div&gt;Nilai tidak&lt;/div&gt;&lt;div&gt;valid&lt;br&gt;&lt;/div&gt;" style="shape=parallelogram;perimeter=parallelogramPerimeter;whiteSpace=wrap;html=1;fixedSize=1;" vertex="1" parent="WIyWlLk6GJQsqaUBKTNV-1">
          <mxGeometry x="590" y="760" width="100" height="80" as="geometry" />
        </mxCell>
        <mxCell id="qvhPEpaHhkURTSQy2wZx-30" value="Nilai = E" style="shape=parallelogram;perimeter=parallelogramPerimeter;whiteSpace=wrap;html=1;fixedSize=1;" vertex="1" parent="WIyWlLk6GJQsqaUBKTNV-1">
          <mxGeometry x="430" y="760" width="100" height="80" as="geometry" />
        </mxCell>
        <mxCell id="qvhPEpaHhkURTSQy2wZx-31" value="Selesai" style="strokeWidth=2;html=1;shape=mxgraph.flowchart.terminator;whiteSpace=wrap;" vertex="1" parent="WIyWlLk6GJQsqaUBKTNV-1">
          <mxGeometry x="510" y="910" width="100" height="60" as="geometry" />
        </mxCell>
        <mxCell id="qvhPEpaHhkURTSQy2wZx-32" value="" style="endArrow=classic;html=1;rounded=0;entryX=0.5;entryY=0;entryDx=0;entryDy=0;entryPerimeter=0;" edge="1" parent="WIyWlLk6GJQsqaUBKTNV-1" target="qvhPEpaHhkURTSQy2wZx-31">
          <mxGeometry width="50" height="50" relative="1" as="geometry">
            <mxPoint x="560" y="880" as="sourcePoint" />
            <mxPoint x="440" y="710" as="targetPoint" />
          </mxGeometry>
        </mxCell>
        <mxCell id="qvhPEpaHhkURTSQy2wZx-33" value="" style="endArrow=none;html=1;rounded=0;exitX=0.5;exitY=1;exitDx=0;exitDy=0;entryX=0.5;entryY=1;entryDx=0;entryDy=0;" edge="1" parent="WIyWlLk6GJQsqaUBKTNV-1" source="qvhPEpaHhkURTSQy2wZx-29" target="qvhPEpaHhkURTSQy2wZx-30">
          <mxGeometry width="50" height="50" relative="1" as="geometry">
            <mxPoint x="560" y="880" as="sourcePoint" />
            <mxPoint x="490" y="850" as="targetPoint" />
            <Array as="points">
              <mxPoint x="640" y="880" />
              <mxPoint x="480" y="880" />
            </Array>
          </mxGeometry>
        </mxCell>
        <mxCell id="qvhPEpaHhkURTSQy2wZx-34" value="" style="endArrow=none;html=1;rounded=0;exitX=0.5;exitY=1;exitDx=0;exitDy=0;" edge="1" parent="WIyWlLk6GJQsqaUBKTNV-1" source="qvhPEpaHhkURTSQy2wZx-21">
          <mxGeometry width="50" height="50" relative="1" as="geometry">
            <mxPoint x="240" y="710" as="sourcePoint" />
            <mxPoint x="480" y="880" as="targetPoint" />
            <Array as="points">
              <mxPoint x="160" y="880" />
            </Array>
          </mxGeometry>
        </mxCell>
        <mxCell id="qvhPEpaHhkURTSQy2wZx-35" value="" style="endArrow=none;html=1;rounded=0;entryX=0.5;entryY=1;entryDx=0;entryDy=0;" edge="1" parent="WIyWlLk6GJQsqaUBKTNV-1" target="qvhPEpaHhkURTSQy2wZx-23">
          <mxGeometry width="50" height="50" relative="1" as="geometry">
            <mxPoint x="240" y="880" as="sourcePoint" />
            <mxPoint x="310" y="720" as="targetPoint" />
          </mxGeometry>
        </mxCell>
        <mxCell id="qvhPEpaHhkURTSQy2wZx-37" value="" style="endArrow=none;html=1;rounded=0;entryX=0.5;entryY=1;entryDx=0;entryDy=0;" edge="1" parent="WIyWlLk6GJQsqaUBKTNV-1" target="qvhPEpaHhkURTSQy2wZx-25">
          <mxGeometry width="50" height="50" relative="1" as="geometry">
            <mxPoint x="320" y="880" as="sourcePoint" />
            <mxPoint x="290" y="680" as="targetPoint" />
          </mxGeometry>
        </mxCell>
        <mxCell id="qvhPEpaHhkURTSQy2wZx-38" value="" style="endArrow=none;html=1;rounded=0;entryX=0.5;entryY=1;entryDx=0;entryDy=0;" edge="1" parent="WIyWlLk6GJQsqaUBKTNV-1" target="qvhPEpaHhkURTSQy2wZx-27">
          <mxGeometry width="50" height="50" relative="1" as="geometry">
            <mxPoint x="400" y="880" as="sourcePoint" />
            <mxPoint x="290" y="680" as="targetPoint" />
          </mxGeometry>
        </mxCell>
      </root>
    </mxGraphModel>
  </diagram>
</mxfile>
